<svg width="1060" height="598" viewBox="0 0 1060 598" fill="none" xmlns="http://www.w3.org/2000/svg">
<path d="M312.973 508.202H268.503V586.251H160.682V508.202H0V428.475L167.814 183H268.503V426.797H312.973V508.202ZM160.682 426.797V379.8C160.682 370.988 161.102 359.239 161.521 344.132C162.36 329.026 162.78 321.473 163.199 320.634H160.262C153.969 334.901 146.837 347.909 138.866 360.497L94.3954 426.797H160.682Z" fill="#FFDC93"/>
<path d="M675.131 391.129C675.131 462.464 662.964 514.916 639.47 548.066C615.557 581.215 579.057 598 529.552 598C481.305 598 445.225 580.796 420.473 545.968C396.14 511.14 383.973 459.527 383.973 391.129C383.973 319.375 395.72 266.923 420.053 233.354C443.967 199.785 480.466 183 529.971 183C577.798 183 614.298 200.624 638.631 235.452C662.964 270.28 675.131 321.893 675.131 391.129ZM492.213 391.129C492.213 436.868 495.15 468.339 500.604 485.123C506.477 502.328 515.707 510.72 529.132 510.72C542.557 510.72 552.207 501.908 558.08 484.284C563.534 466.66 566.471 435.609 566.471 391.129C566.471 346.231 563.534 315.179 558.08 297.135C552.207 279.092 542.977 270.28 529.552 270.28C516.127 270.28 506.477 279.092 501.024 296.296C495.15 313.5 492.213 344.972 492.213 391.129Z" fill="#FFDC93"/>
<path d="M1059.1 508.202H1014.63V586.251H906.813V508.202H746.131V428.475L913.945 183H1014.63V426.797H1059.1V508.202ZM906.813 426.797V379.8C906.813 370.988 907.232 359.239 907.652 344.132C908.491 329.026 908.911 321.473 909.33 320.634H906.393C900.1 334.901 892.968 347.909 884.997 360.497L840.526 426.797H906.813Z" fill="#FFDC93"/>
<path d="M636.206 402.661C669.119 402.661 695.8 375.942 695.8 342.983C695.8 310.023 669.119 283.305 636.206 283.305C603.293 283.305 576.612 310.023 576.612 342.983C576.612 375.942 603.293 402.661 636.206 402.661Z" fill="white"/>
<path d="M440.139 402.661C473.052 402.661 499.734 375.942 499.734 342.983C499.734 310.023 473.052 283.305 440.139 283.305C407.226 283.305 380.545 310.023 380.545 342.983C380.545 375.942 407.226 402.661 440.139 402.661Z" fill="white"/>
<path d="M475.176 294.816C481.277 304.215 484.796 315.336 484.796 327.397C484.796 360.368 458.127 387.075 425.202 387.075C412.063 387.075 399.941 382.767 390.086 375.562C400.723 391.93 419.102 402.66 440.061 402.66C472.987 402.66 499.655 375.953 499.655 342.982C499.655 323.246 490.036 305.703 475.176 294.816Z" fill="#EFEFEF"/>
<path d="M671.243 294.816C677.343 304.215 680.862 315.336 680.862 327.397C680.862 360.368 654.194 387.075 621.268 387.075C608.129 387.075 596.007 382.767 586.153 375.562C596.789 391.93 615.168 402.66 636.128 402.66C669.053 402.66 695.722 375.953 695.722 342.982C695.722 323.246 686.024 305.703 671.243 294.816Z" fill="#EFEFEF"/>
<path d="M440.139 405.479C405.806 405.479 377.808 377.441 377.808 343.06C377.808 308.678 405.806 280.641 440.139 280.641C474.472 280.641 502.471 308.678 502.471 343.06C502.471 377.441 474.472 405.479 440.139 405.479ZM440.139 286.045C408.778 286.045 383.282 311.576 383.282 342.981C383.282 374.387 408.778 399.918 440.139 399.918C471.5 399.918 496.996 374.387 496.996 342.981C496.996 311.654 471.5 286.045 440.139 286.045Z" fill="#231F20"/>
<path d="M418.945 352.615C434.883 352.615 447.804 339.676 447.804 323.716C447.804 307.755 434.883 294.816 418.945 294.816C403.007 294.816 390.086 307.755 390.086 323.716C390.086 339.676 403.007 352.615 418.945 352.615Z" fill="#231F20"/>
<path d="M411.906 330.293C418.428 330.293 423.715 324.998 423.715 318.467C423.715 311.935 418.428 306.641 411.906 306.641C405.384 306.641 400.097 311.935 400.097 318.467C400.097 324.998 405.384 330.293 411.906 330.293Z" fill="white"/>
<path d="M636.206 405.479C601.873 405.479 573.875 377.441 573.875 343.06C573.875 308.678 601.873 280.641 636.206 280.641C670.539 280.641 698.538 308.678 698.538 343.06C698.538 377.441 670.539 405.479 636.206 405.479ZM636.206 286.045C604.845 286.045 579.349 311.576 579.349 342.981C579.349 374.387 604.845 399.918 636.206 399.918C667.567 399.918 693.063 374.387 693.063 342.981C693.063 311.654 667.567 286.045 636.206 286.045Z" fill="#231F20"/>
<path d="M654.037 392.322C669.976 392.322 682.896 379.383 682.896 363.423C682.896 347.462 669.976 334.523 654.037 334.523C638.099 334.523 625.179 347.462 625.179 363.423C625.179 379.383 638.099 392.322 654.037 392.322Z" fill="#231F20"/>
<path d="M646.999 370C653.521 370 658.808 364.705 658.808 358.174C658.808 351.642 653.521 346.348 646.999 346.348C640.477 346.348 635.189 351.642 635.189 358.174C635.189 364.705 640.477 370 646.999 370Z" fill="white"/>
<path d="M363.887 261.846C373.975 273.437 383.047 252.448 414.252 245.869C440.295 240.387 456.563 253.466 461.099 243.598C465.635 233.73 444.832 219.946 406.51 226.055C377.964 230.519 352.155 248.375 363.887 261.846Z" fill="#231F20"/>
<path d="M711.677 263.724C700.962 274.767 693.063 253.308 662.249 245.006C636.519 238.114 619.548 250.254 615.559 240.151C611.571 230.048 633.078 217.438 671.009 225.583C699.32 231.692 724.112 250.88 711.677 263.724Z" fill="#231F20"/>
<path d="M529.374 536.19C510.292 536.19 495.823 519.43 481.668 503.062C468.842 488.182 455.546 472.753 439.826 472.048C404.398 470.403 365.998 520.213 365.607 520.683C363.652 523.268 359.976 523.738 357.396 521.78C354.815 519.822 354.345 516.141 356.301 513.556C358.021 511.364 397.36 460.3 438.106 460.3C438.888 460.3 439.592 460.3 440.374 460.379C461.099 461.397 476.037 478.705 490.505 495.465C505.834 513.243 519.129 528.593 536.257 523.424C552.524 518.49 566.992 502.905 581.07 487.868C598.666 468.994 616.811 449.493 639.178 451.92C660.607 454.27 678.204 467.349 690.17 489.748C698.929 506.195 701.51 521.858 701.588 522.485C702.135 525.696 699.945 528.672 696.739 529.22C693.532 529.768 690.561 527.575 690.013 524.364C689.935 523.816 680.315 468.132 637.927 463.59C621.425 461.788 606.018 478.392 589.673 495.857C574.578 511.99 559.015 528.75 539.698 534.624C536.1 535.642 532.659 536.19 529.374 536.19Z" fill="#231F20"/>
<path d="M340.424 502.904C335.966 514.026 337.843 527.34 344.648 537.129C346.603 539.949 348.871 542.455 351.608 544.569C352.468 545.274 353.641 545.431 354.424 544.569C355.127 543.865 355.284 542.377 354.424 541.75C345.742 534.936 341.285 523.815 342.145 512.851C342.38 509.796 343.162 506.82 344.257 503.923C344.648 502.904 343.787 501.73 342.849 501.416C341.754 501.182 340.815 501.886 340.424 502.904Z" fill="#231F20"/>
<path d="M694.706 546.842C701.822 548.017 708.314 543.475 712.772 538.306C716.995 533.372 720.045 527.263 721.296 520.919C722 517.238 722.235 513.479 721.844 509.798C721.765 508.702 720.983 507.762 719.81 507.762C718.794 507.762 717.699 508.702 717.777 509.798C718.95 520.997 714.336 533.45 705.029 540.107C702.37 541.986 699.085 543.553 695.722 543.005C694.627 542.848 693.532 543.318 693.22 544.414C693.063 545.354 693.611 546.686 694.706 546.842Z" fill="#231F20"/>
<path d="M413.176 41.088C413.176 37.4613 413.816 34.1973 415.096 31.296C416.376 28.352 418.125 25.856 420.344 23.808C422.605 21.76 425.272 20.1813 428.344 19.072C431.416 17.9627 434.744 17.408 438.328 17.408C441.912 17.408 445.24 17.9627 448.312 19.072C451.384 20.1813 454.051 21.76 456.312 23.808C458.573 25.856 460.344 28.352 461.624 31.296C462.904 34.1973 463.544 37.4613 463.544 41.088C463.544 44.7147 462.904 48.0213 461.624 51.008C460.344 53.9947 458.573 56.5547 456.312 58.688C454.051 60.7787 451.384 62.4 448.312 63.552C445.24 64.704 441.912 65.28 438.328 65.28C434.744 65.28 431.416 64.704 428.344 63.552C425.272 62.4 422.605 60.7787 420.344 58.688C418.125 56.5547 416.376 53.9947 415.096 51.008C413.816 48.0213 413.176 44.7147 413.176 41.088ZM429.368 41.088C429.368 42.5813 429.581 43.9467 430.008 45.184C430.477 46.4213 431.096 47.488 431.864 48.384C432.675 49.28 433.635 49.984 434.744 50.496C435.853 50.9653 437.048 51.2 438.328 51.2C439.608 51.2 440.781 50.9653 441.848 50.496C442.957 49.984 443.917 49.28 444.728 48.384C445.539 47.488 446.157 46.4213 446.584 45.184C447.053 43.9467 447.288 42.5813 447.288 41.088C447.288 39.6373 447.053 38.3147 446.584 37.12C446.157 35.8827 445.539 34.8587 444.728 34.048C443.917 33.1947 442.957 32.5333 441.848 32.064C440.781 31.5947 439.608 31.36 438.328 31.36C437.048 31.36 435.853 31.5947 434.744 32.064C433.635 32.5333 432.675 33.1947 431.864 34.048C431.096 34.8587 430.477 35.8827 430.008 37.12C429.581 38.3147 429.368 39.6373 429.368 41.088ZM506.198 47.04C506.198 49.9413 505.665 52.5227 504.598 54.784C503.574 57.0453 502.166 58.9653 500.374 60.544C498.625 62.08 496.577 63.2533 494.23 64.064C491.926 64.8747 489.494 65.28 486.934 65.28C484.417 65.28 481.985 64.8747 479.638 64.064C477.334 63.2533 475.307 62.08 473.558 60.544C471.809 58.9653 470.401 57.0453 469.334 54.784C468.31 52.5227 467.798 49.9413 467.798 47.04C467.798 44.1813 468.31 41.6427 469.334 39.424C470.401 37.1627 471.809 35.264 473.558 33.728C475.307 32.192 477.334 31.04 479.638 30.272C481.985 29.4613 484.417 29.056 486.934 29.056C489.494 29.056 491.926 29.4613 494.23 30.272C496.577 31.04 498.625 32.192 500.374 33.728C502.166 35.264 503.574 37.1627 504.598 39.424C505.665 41.6427 506.198 44.1813 506.198 47.04ZM486.934 41.472C485.313 41.472 483.99 42.0267 482.966 43.136C481.985 44.2453 481.494 45.5467 481.494 47.04C481.494 48.6187 482.006 49.9627 483.03 51.072C484.054 52.1813 485.377 52.736 486.998 52.736C488.619 52.736 489.942 52.1813 490.966 51.072C491.99 49.9627 492.502 48.6187 492.502 47.04C492.502 45.5467 491.969 44.2453 490.902 43.136C489.878 42.0267 488.555 41.472 486.934 41.472ZM535.322 64.896C533.658 64.896 532.015 64.5973 530.394 64C528.773 63.36 527.45 62.4853 526.426 61.376H526.298V79.36H511.642V30.336H525.53V33.728H525.658C526.895 32.32 528.389 31.2533 530.138 30.528C531.887 29.8027 533.594 29.44 535.258 29.44C537.775 29.44 539.994 29.952 541.914 30.976C543.834 32 545.434 33.344 546.714 35.008C547.994 36.672 548.954 38.5493 549.594 40.64C550.277 42.7307 550.618 44.864 550.618 47.04C550.618 49.2587 550.277 51.4347 549.594 53.568C548.954 55.7013 547.994 57.6213 546.714 59.328C545.434 60.992 543.834 62.336 541.914 63.36C540.037 64.384 537.839 64.896 535.322 64.896ZM536.922 47.04C536.922 45.5467 536.453 44.2453 535.514 43.136C534.575 42.0267 533.21 41.472 531.418 41.472C529.669 41.472 528.261 42.0267 527.194 43.136C526.17 44.2453 525.658 45.5467 525.658 47.04C525.658 48.6187 526.17 49.9627 527.194 51.072C528.261 52.1813 529.669 52.736 531.418 52.736C533.21 52.736 534.575 52.2027 535.514 51.136C536.453 50.0267 536.922 48.6613 536.922 47.04ZM583.664 53.312C583.664 55.5733 583.173 57.472 582.192 59.008C581.253 60.544 580.037 61.7813 578.544 62.72C577.093 63.616 575.493 64.256 573.744 64.64C571.994 65.0667 570.33 65.28 568.752 65.28C565.85 65.28 562.992 64.8533 560.176 64C557.402 63.1893 554.992 62.016 552.944 60.48L560.176 52.096C561.2 53.0347 562.394 53.8027 563.76 54.4C565.168 54.9547 566.512 55.232 567.792 55.232C568.304 55.232 568.773 55.1467 569.2 54.976C569.669 54.7627 569.904 54.4 569.904 53.888C569.904 53.3333 569.498 52.9067 568.688 52.608C567.92 52.2667 566.554 51.8613 564.592 51.392C563.525 51.136 562.437 50.7733 561.328 50.304C560.218 49.792 559.194 49.1307 558.256 48.32C557.36 47.5093 556.613 46.528 556.016 45.376C555.418 44.1813 555.12 42.7733 555.12 41.152C555.12 38.976 555.589 37.12 556.528 35.584C557.509 34.048 558.725 32.8107 560.176 31.872C561.669 30.8907 563.269 30.1867 564.976 29.76C566.725 29.2907 568.368 29.056 569.904 29.056C572.506 29.056 575.088 29.44 577.648 30.208C580.208 30.976 582.512 32.0427 584.56 33.408L577.648 41.664C576.581 40.9813 575.493 40.448 574.384 40.064C573.274 39.68 572.186 39.488 571.12 39.488C570.394 39.488 569.797 39.5947 569.328 39.808C568.858 39.9787 568.624 40.3413 568.624 40.896C568.624 41.3227 568.88 41.664 569.392 41.92C569.946 42.1333 571.184 42.432 573.104 42.816C574.426 43.072 575.706 43.4773 576.944 44.032C578.224 44.544 579.354 45.2267 580.336 46.08C581.36 46.8907 582.17 47.8933 582.768 49.088C583.365 50.2827 583.664 51.6907 583.664 53.312ZM599.836 65.024C598.727 65.024 597.681 64.8107 596.7 64.384C595.761 64 594.929 63.4667 594.204 62.784C593.479 62.1013 592.903 61.2907 592.476 60.352C592.092 59.4133 591.9 58.3893 591.9 57.28C591.9 56.2133 592.092 55.2107 592.476 54.272C592.903 53.3333 593.479 52.5227 594.204 51.84C594.929 51.1147 595.761 50.56 596.7 50.176C597.681 49.7493 598.727 49.536 599.836 49.536C600.945 49.536 601.969 49.7493 602.908 50.176C603.889 50.56 604.743 51.1147 605.468 51.84C606.193 52.5227 606.748 53.3333 607.132 54.272C607.559 55.2107 607.772 56.2133 607.772 57.28C607.772 58.3893 607.559 59.4133 607.132 60.352C606.748 61.2907 606.193 62.1013 605.468 62.784C604.743 63.4667 603.889 64 602.908 64.384C601.969 64.8107 600.945 65.024 599.836 65.024ZM592.156 18.688H607.516V47.36H592.156V18.688Z" fill="black"/>
</svg>
